<?xml version="1.0" standalone="no"?>
<!DOCTYPE svg PUBLIC "-//W3C//DTD SVG 20010904//EN"
 "http://www.w3.org/TR/2001/REC-SVG-20010904/DTD/svg10.dtd">
<svg version="1.0" xmlns="http://www.w3.org/2000/svg"
 width="1280.000000pt" height="1024.000000pt" viewBox="0 0 1280.000000 1024.000000"
 preserveAspectRatio="xMidYMid meet">
<metadata>
Created by potrace 1.10, written by Peter Selinger 2001-2011
</metadata>
<g transform="translate(0.000000,1024.000000) scale(0.100000,-0.100000)"
fill="#000000" stroke="none">
<path d="M3197 10233 c1762 -2 4644 -2 6405 0 1762 1 321 2 -3202 2 -3523 0
-4964 -1 -3203 -2z"/>
<path d="M5805 10057 c-22 -12 -49 -39 -61 -60 l-21 -37 -11 25 c-18 39 -69
65 -130 65 -58 0 -66 -14 -21 -37 13 -7 20 -13 15 -13 -6 0 0 -9 12 -20 12
-11 26 -20 32 -20 23 0 8 -19 -23 -29 -58 -20 -107 -86 -107 -147 0 -13 4 -24
8 -24 15 0 32 24 32 44 0 19 1 19 13 1 15 -19 37 -13 37 11 0 8 5 14 10 14 6
0 10 -5 10 -11 0 -8 5 -8 15 1 8 7 15 20 15 29 0 13 2 13 9 2 5 -8 16 -11 25
-8 14 5 16 -3 16 -57 0 -35 3 -104 6 -154 6 -81 5 -92 -10 -92 -9 0 -25 -9
-36 -20 -20 -20 -20 -20 -20 9 0 16 -7 34 -15 41 -12 10 -16 6 -27 -19 -12
-27 -15 -28 -31 -16 -14 10 -18 27 -18 74 0 34 -4 59 -9 56 -5 -3 -12 -1 -15
5 -9 14 -35 -6 -35 -26 0 -8 -4 -13 -9 -12 -4 2 -25 -15 -45 -36 -26 -29 -34
-46 -30 -60 6 -18 5 -18 -8 -5 -8 8 -21 32 -28 54 -7 22 -21 57 -32 78 -23 45
-18 73 9 57 32 -18 96 -40 101 -36 11 11 -61 105 -88 116 -17 7 -30 16 -30 20
0 4 13 23 30 41 32 37 27 44 -25 35 -26 -5 -40 -16 -58 -46 -17 -29 -26 -37
-37 -30 -34 22 -140 4 -140 -22 0 -5 62 -21 85 -22 6 -1 14 -7 18 -14 5 -7 14
-9 20 -6 7 4 2 -3 -10 -15 -24 -23 -48 -95 -37 -112 3 -6 3 -39 -1 -74 -6 -63
-7 -63 -26 -44 -25 25 -51 24 -69 -3 -14 -23 -14 -22 -26 17 l-12 40 -1 -49
c-1 -46 -2 -48 -16 -30 -19 25 -19 58 0 74 18 15 20 81 3 98 -7 7 -21 12 -33
12 -11 0 -29 8 -40 16 -16 12 -36 14 -101 9 -71 -6 -84 -5 -115 14 -19 11 -51
21 -71 21 l-38 0 0 45 c0 64 -24 85 -96 85 -30 0 -64 -4 -74 -10 -15 -8 -20
-6 -25 8 -9 32 -48 60 -90 67 l-40 6 24 -20 c13 -12 20 -21 15 -21 -4 0 3 -11
16 -25 20 -22 21 -25 6 -25 -10 0 -34 -16 -53 -35 -23 -23 -44 -35 -63 -35
-20 0 -30 -6 -35 -22 -6 -20 -8 -16 -19 23 -19 68 -46 108 -83 121 -18 7 -33
14 -33 18 1 3 21 20 45 38 25 18 45 40 45 48 0 14 -9 15 -57 9 -66 -8 -98 -25
-108 -56 -7 -20 -9 -18 -29 17 -27 48 -79 84 -122 84 -43 0 -43 -9 1 -47 19
-17 31 -33 28 -37 -3 -3 1 -8 10 -12 9 -3 13 -12 10 -20 -3 -8 4 -17 18 -22
12 -5 18 -11 13 -15 -29 -17 -105 -37 -146 -37 l-48 0 0 -36 c0 -51 -25 -69
-59 -43 -13 10 -34 19 -47 19 -13 0 -24 5 -24 10 0 6 5 10 11 10 5 0 7 5 4 10
-3 6 -1 10 4 10 6 0 11 5 11 11 0 6 7 18 16 27 23 22 3 26 -41 8 -27 -12 -40
-26 -52 -55 -14 -36 -18 -39 -36 -30 -10 6 -33 8 -51 4 -17 -3 -78 -10 -136
-15 -58 -4 -122 -13 -142 -20 -34 -10 -38 -14 -38 -44 0 -18 12 -85 26 -147
21 -94 24 -120 15 -150 -6 -21 -8 -45 -5 -55 5 -15 3 -14 -10 4 -19 24 -66 31
-66 8 0 -8 -12 -17 -27 -21 -16 -3 -38 -16 -50 -27 l-23 -21 0 -2595 0 -2594
31 -29 31 -29 3340 0 3340 0 29 29 29 29 0 2834 0 2835 -23 21 c-13 12 -30 22
-39 22 -9 0 -32 7 -53 16 l-37 15 27 23 c20 17 24 25 14 29 -8 3 -5 6 8 6 42
2 35 21 -7 21 -34 0 -48 -6 -76 -34 -19 -19 -34 -42 -34 -52 0 -16 -1 -16 -18
-1 -31 28 -162 16 -162 -15 0 -4 -68 -8 -150 -8 -130 0 -155 3 -187 20 -20 10
-62 24 -92 30 -31 6 -75 15 -99 20 -70 16 -126 12 -155 -11 l-27 -20 -16 40
c-19 47 -61 77 -122 87 -51 8 -53 -2 -7 -43 19 -17 31 -33 28 -37 -3 -3 2 -8
11 -12 26 -10 19 -20 -23 -32 -21 -7 -44 -19 -51 -27 -11 -13 -60 -15 -330
-15 -283 0 -319 2 -331 17 -17 20 -79 47 -88 38 -3 -4 1 -12 9 -18 8 -7 16
-18 18 -25 3 -19 -177 -16 -203 4 -11 8 -36 19 -57 25 -40 10 -48 23 -23 33 8
3 15 12 15 21 0 8 5 15 10 15 6 0 10 4 10 9 0 6 16 27 35 48 l35 38 -30 3
c-47 5 -101 -27 -126 -75 l-21 -41 -14 25 c-7 13 -20 28 -29 33 -20 10 -140
24 -140 15 0 -19 23 -46 36 -41 8 3 13 2 10 -3 -3 -5 8 -18 26 -29 l32 -20
-36 -15 c-19 -8 -42 -24 -49 -34 -11 -16 -31 -21 -95 -26 -44 -3 -90 -4 -102
0 -20 5 -20 6 -4 32 9 14 24 31 32 38 26 20 1 28 -43 13 -28 -10 -46 -25 -57
-45 -8 -16 -16 -32 -18 -34 -1 -3 -8 1 -14 7 -23 23 -138 7 -138 -18 0 -8 65
-25 88 -23 6 0 12 -4 12 -9 0 -6 7 -8 15 -4 22 8 18 -7 -5 -21 -23 -15 -43
-82 -35 -116 7 -26 -28 -105 -61 -143 -11 -11 -15 -14 -10 -7 6 9 2 13 -13 13
-13 0 -21 6 -21 18 -1 16 -1 16 -14 0 -7 -10 -18 -18 -25 -18 -6 0 -11 -5 -11
-12 0 -9 -3 -9 -11 -1 -6 6 -11 23 -11 37 0 14 -4 23 -9 20 -5 -3 -6 1 -4 8 3
8 2 31 -3 53 -6 30 -12 39 -30 40 -26 2 -47 -19 -36 -36 4 -7 3 -9 -4 -5 -6 4
-16 -8 -23 -29 -7 -19 -17 -35 -22 -35 -4 0 -5 -4 -2 -10 3 -5 1 -10 -6 -10
-7 0 -9 -8 -6 -21 3 -12 3 -18 0 -15 -4 3 -13 0 -22 -7 -14 -11 -14 -10 -2 6
12 15 11 17 -8 17 -13 0 -21 6 -21 18 -1 16 -1 16 -14 0 -7 -10 -16 -18 -20
-18 -4 0 -14 -7 -22 -15 -24 -23 -37 -18 -30 11 5 17 3 23 -4 19 -20 -13 -11
71 13 106 19 28 30 35 64 37 35 3 44 -1 58 -22 19 -29 6 -67 -23 -65 -10 0
-12 3 -4 6 17 6 15 33 -2 33 -8 0 -16 -6 -19 -13 -9 -23 9 -39 39 -35 25 3 29
7 32 40 4 50 -24 78 -78 78 -30 0 -47 -7 -65 -24 -27 -27 -48 -95 -40 -128 3
-13 -1 -37 -9 -53 l-16 -30 0 48 c0 30 -4 46 -10 42 -5 -3 -10 -23 -10 -43
l-1 -37 -24 28 c-27 30 -47 34 -68 13 -12 -12 -15 -9 -26 20 -7 19 -16 34 -21
34 -11 0 -20 -26 -21 -58 l0 -27 -16 23 c-9 13 -26 22 -40 22 -16 0 -23 5 -21
13 3 6 20 56 38 109 24 72 36 95 45 88 7 -5 15 -7 19 -3 4 4 4 0 0 -10 -4 -11
0 -19 10 -23 9 -3 16 -12 16 -20 0 -8 5 -14 10 -14 6 0 10 -9 10 -20 0 -11 4
-20 9 -20 5 0 11 -14 15 -32 5 -23 9 -29 17 -21 7 7 10 42 8 91 -4 74 -7 84
-34 112 -17 17 -25 30 -20 28 6 -1 30 6 55 16 25 10 56 20 69 22 39 5 36 13
-10 34 -55 24 -86 25 -124 2 l-29 -18 -21 41 c-22 45 -61 68 -106 63 l-30 -3
30 -32 c16 -17 26 -34 23 -37 -3 -3 1 -6 10 -6 8 0 15 -7 15 -15 0 -9 -9 -15
-21 -15 -33 0 -64 -27 -96 -83 -36 -63 -37 -70 -5 -55 14 6 25 15 25 20 0 5 5
6 12 2 6 -4 17 1 25 11 8 12 13 14 13 6 0 -10 3 -11 14 -2 7 6 20 9 29 5 13
-5 12 -12 -7 -57 -13 -29 -31 -77 -41 -107 -10 -30 -25 -61 -33 -69 -13 -13
-14 -12 -7 8 6 20 4 23 -9 18 -11 -4 -16 -2 -14 7 3 13 -20 48 -69 105 -20 22
-23 23 -23 7 0 -15 -3 -16 -15 -6 -13 11 -15 6 -16 -31 0 -24 -2 -53 -4 -64
-2 -11 1 -23 8 -27 9 -6 8 -8 -2 -8 -10 0 -11 -3 -2 -14 9 -11 9 -15 -1 -19
-9 -3 -7 -9 7 -21 19 -15 18 -15 -13 -5 -24 8 -30 14 -21 20 11 6 10 9 -4 15
-9 3 -14 10 -11 15 3 5 -2 9 -11 9 -9 0 -13 5 -10 10 3 6 -1 10 -9 10 -8 0
-17 10 -19 23 l-4 22 -8 -22 c-4 -14 -15 -23 -27 -23 -10 0 -17 -4 -14 -9 4
-5 0 -12 -6 -14 -10 -4 -9 -8 2 -16 13 -9 12 -11 -6 -11 -17 0 -20 6 -20 33 0
17 -4 92 -8 165 -8 127 -8 132 10 125 11 -4 24 -13 30 -22 6 -8 18 -12 28 -8
10 4 16 1 16 -8 0 -8 15 -22 33 -31 17 -9 38 -25 45 -35 20 -29 32 -22 32 19
-1 58 -32 116 -73 135 -19 9 -42 17 -50 17 -24 0 -28 27 -5 33 14 4 19 12 16
25 -4 14 -1 19 11 18 10 -1 15 5 13 18 -2 10 1 15 6 12 12 -7 35 18 25 27 -3
4 0 7 9 7 8 0 23 9 33 20 18 20 17 20 -26 20 -27 0 -59 -9 -84 -23z m3141
-192 c12 -8 24 -12 27 -9 22 22 147 -63 147 -100 0 -25 -32 -28 -59 -4 -25 22
-25 21 2 -8 39 -44 21 -50 -25 -9 -31 28 -41 33 -52 23 -10 -10 -7 -15 18 -28
41 -20 74 -72 81 -128 4 -26 10 -59 15 -74 11 -35 0 -36 -32 -3 l-25 25 4 -24
c16 -82 -135 -136 -243 -87 -55 25 -71 49 -66 103 4 36 6 39 13 21 4 -12 19
-25 31 -28 27 -7 78 9 78 25 0 5 5 10 10 10 6 0 10 -6 10 -14 0 -17 31 -26 87
-26 34 0 45 5 54 23 7 12 17 26 23 30 8 6 8 10 -1 13 -7 3 -9 13 -6 22 3 9 3
14 -2 10 -4 -4 -14 -3 -22 3 -9 9 -13 8 -13 0 0 -7 -22 -11 -59 -11 -37 0 -61
-5 -63 -12 -3 -7 -9 -8 -19 -3 -8 5 -26 8 -41 6 -17 -1 -28 2 -28 9 0 7 -7 10
-15 6 -21 -8 -19 1 13 50 31 50 73 74 130 74 26 0 42 5 46 15 4 12 -5 15 -52
16 -44 0 -52 2 -34 9 17 7 22 17 22 43 0 49 11 57 46 32z m-5096 -65 c0 -29 4
-39 20 -43 12 -3 20 -14 20 -26 0 -19 6 -21 70 -21 58 0 72 -3 82 -19 12 -19
12 -19 39 0 33 23 70 24 110 3 l31 -15 -4 36 -3 37 78 0 c79 -1 127 -17 127
-45 0 -8 3 -8 9 2 7 11 17 11 61 1 44 -11 51 -15 46 -32 -4 -19 -3 -18 20 3
32 30 97 32 139 5 19 -13 50 -20 85 -22 141 -4 134 3 116 -114 -9 -51 -17 -95
-19 -97 -6 -5 -108 16 -137 29 -14 6 -56 12 -93 12 -64 1 -70 3 -98 34 -16 18
-29 28 -29 22 0 -5 -20 -10 -45 -10 -44 0 -45 1 -45 32 0 32 0 32 -16 10 -9
-13 -30 -24 -55 -28 -37 -6 -39 -9 -39 -41 l0 -34 -52 3 c-48 3 -53 5 -50 26
4 26 3 26 -34 7 -16 -8 -38 -15 -49 -15 -33 0 -85 38 -97 70 -8 25 -15 30 -43
30 -33 0 -34 -2 -37 -42 l-3 -43 -47 -3 -48 -3 0 80 c0 50 -4 81 -10 81 -7 0
-9 -21 -4 -61 l7 -61 -56 3 c-33 2 -62 -2 -70 -10 -9 -6 -32 -15 -52 -18 -34
-5 -36 -8 -33 -37 3 -31 3 -31 -49 -34 l-53 -3 0 30 c0 36 2 35 -39 15 -61
-30 -151 11 -151 70 0 19 -4 23 -21 19 -12 -4 -18 -11 -15 -20 4 -8 9 -32 12
-53 l6 -37 -51 -13 c-29 -7 -54 -11 -55 -9 -4 5 -66 273 -66 286 0 12 104 33
161 33 50 0 89 -29 92 -69 1 -17 8 -21 37 -21 20 0 46 -7 58 -16 21 -15 22
-14 22 20 l0 36 85 0 c71 0 85 3 85 16 0 9 9 18 20 21 16 4 20 14 20 47 l0 41
55 -3 55 -4 0 -38z m3513 -106 c67 -6 80 -10 98 -32 11 -14 19 -35 17 -46 -2
-12 6 -29 17 -38 17 -14 18 -20 8 -35 -7 -10 -19 -32 -27 -50 -16 -36 -43 -53
-81 -53 -21 0 -30 -8 -45 -42 -11 -24 -20 -51 -20 -61 0 -23 -42 -41 -75 -33
-17 4 -32 20 -47 50 -15 32 -31 48 -60 61 -30 13 -45 28 -59 59 -57 125 25
247 156 231 22 -3 75 -8 118 -11z m-2075 -48 c12 -30 24 -71 28 -90 6 -33 4
-36 -17 -36 -19 0 -21 -2 -9 -10 13 -8 12 -10 -2 -10 -10 0 -18 7 -18 15 0 19
-35 20 -52 1 -10 -11 -15 -7 -25 23 -15 44 -16 71 -3 71 6 0 10 6 10 13 0 7 9
23 20 35 11 12 20 26 20 32 0 5 6 10 14 10 7 0 23 -24 34 -54z m2512 -6 c11
-11 20 -25 20 -31 0 -7 11 -8 30 -4 22 5 40 1 66 -14 23 -14 40 -18 48 -12 13
11 92 0 124 -18 36 -19 31 -73 -11 -105 -19 -15 -38 -26 -43 -26 -5 0 -15 -9
-22 -20 -9 -15 -23 -20 -52 -20 -38 0 -40 2 -40 31 l0 30 -26 -20 c-15 -12
-40 -21 -56 -21 -29 0 -70 31 -80 61 -4 11 -8 12 -20 2 -8 -7 -29 -14 -48 -15
l-33 -3 -18 80 c-20 90 -21 88 51 112 53 17 88 15 110 -7z m707 10 c-1 -3 13
-20 31 -38 78 -82 60 -215 -36 -270 -113 -63 -252 14 -252 140 0 68 21 111 72
148 40 29 48 31 115 28 39 -2 71 -5 70 -8z m941 -112 c18 -27 29 -48 22 -48
-6 0 -25 23 -42 50 -17 28 -33 50 -35 50 -6 0 18 -43 43 -77 13 -17 25 -44 25
-60 2 -27 2 -27 6 -3 4 25 10 28 94 56 14 5 17 -4 18 -50 0 -35 -3 -56 -10
-56 -7 0 -9 12 -5 34 8 43 1 48 -46 29 -34 -13 -38 -19 -38 -50 0 -37 0 -37
55 -19 11 4 0 -4 -25 -18 l-45 -24 -6 26 -7 27 -1 -28 c-1 -25 -4 -27 -28 -21
-41 10 -43 12 -43 50 0 31 -2 34 -30 34 -26 0 -30 -3 -30 -29 0 -24 -4 -28
-19 -24 -16 4 -20 16 -23 76 l-3 72 49 58 50 58 20 -33 c11 -18 35 -54 54 -80z
m137 -423 l25 -24 0 -2361 0 -2361 -25 -24 -24 -25 -3161 0 -3161 0 -24 25
-25 24 0 2361 0 2361 25 24 24 25 3161 0 3161 0 24 -25z"/>
<path d="M8343 9611 c-18 -11 -39 -34 -48 -50 -33 -64 -9 -162 47 -192 17 -9
14 -4 -9 18 -38 35 -46 67 -10 37 22 -19 22 -19 5 2 -22 25 -25 79 -5 71 10
-4 13 2 10 17 -6 31 39 66 84 66 44 0 87 -40 80 -76 -3 -16 0 -24 9 -24 8 0
14 -4 14 -10 0 -5 -9 -10 -20 -10 -14 0 -20 7 -20 23 0 17 -2 19 -10 7 -6 -10
-4 -20 6 -31 7 -8 14 -20 14 -26 0 -16 -76 -36 -112 -30 -27 6 -30 5 -14 -4
23 -14 95 -5 136 16 37 19 39 7 4 -26 -18 -17 -42 -26 -82 -30 l-57 -6 52 -2
c45 -1 57 3 88 30 66 58 69 153 5 214 -40 38 -119 46 -167 16z"/>
<path d="M3767 9083 c14 -32 18 -93 23 -358 5 -266 9 -327 23 -364 9 -24 17
-53 17 -65 0 -11 -22 -75 -49 -140 -35 -88 -54 -122 -70 -128 -23 -8 -50 -63
-77 -156 -9 -31 -27 -78 -40 -103 l-23 -46 -114 -12 -115 -13 -38 42 c-21 23
-45 61 -52 84 -8 22 -20 47 -27 55 -8 8 -4 -11 9 -43 13 -32 38 -72 55 -90 28
-29 30 -34 16 -46 -11 -9 -25 -10 -56 -2 -27 7 -38 7 -31 0 5 -5 29 -12 53
-15 33 -4 55 -16 89 -47 l45 -41 -39 42 c-22 24 -38 44 -35 46 8 7 221 28 226
23 3 -3 -9 -36 -27 -73 -26 -56 -30 -76 -25 -110 9 -63 -10 -61 -52 7 -21 33
-41 60 -46 60 -4 0 5 -18 19 -40 24 -36 26 -43 14 -65 -11 -20 -11 -27 0 -40
23 -28 53 -14 77 38 14 30 34 54 54 65 67 36 89 61 89 101 0 26 13 57 45 109
55 89 61 112 46 197 l-12 67 51 128 c27 70 50 139 50 152 0 14 -9 51 -20 83
-18 53 -20 84 -20 340 0 223 -3 292 -15 333 -9 28 -20 54 -25 57 -5 3 -2 -11
7 -32z m-38 -1086 c5 -13 12 -48 16 -79 8 -60 1 -78 -56 -162 -17 -26 -34 -67
-38 -96 -4 -28 -10 -52 -12 -54 -10 -9 -119 -76 -124 -76 -13 0 -1 37 46 137
27 59 65 151 84 203 54 156 66 174 84 127z"/>
<path d="M3853 9106 c19 -49 26 -114 31 -300 6 -178 10 -217 29 -273 12 -36
26 -66 32 -67 12 -1 89 247 110 358 20 112 30 129 118 224 l71 77 -63 -60
c-107 -102 -132 -154 -155 -325 -4 -25 -24 -94 -45 -154 l-38 -108 -18 43
c-14 35 -21 96 -30 294 -11 224 -22 305 -41 305 -3 0 -4 -6 -1 -14z"/>
<path d="M4314 9090 c-61 -35 -132 -112 -168 -185 -22 -42 -29 -74 -37 -174
-6 -76 -17 -142 -29 -174 -11 -29 -20 -54 -20 -57 0 -3 51 44 113 105 61 61
135 124 162 140 46 27 59 30 167 33 121 4 183 -3 346 -39 78 -18 95 -25 104
-45 16 -35 4 -39 -49 -16 -75 32 -199 46 -347 38 -72 -3 -144 -9 -160 -12 -37
-9 -143 -108 -221 -209 -127 -163 -191 -268 -230 -382 -21 -59 -64 -179 -96
-266 -57 -154 -58 -163 -74 -330 -10 -113 -22 -192 -36 -230 -11 -32 -19 -60
-17 -63 2 -2 24 18 49 44 35 37 36 40 7 12 -43 -39 -44 -38 -23 20 8 23 22
117 31 209 15 165 28 241 42 241 4 0 41 5 82 10 249 33 386 38 937 31 304 -4
554 -9 557 -12 3 -2 -6 -52 -19 -109 -21 -94 -22 -107 -9 -127 29 -45 36 -34
83 127 l27 95 100 -1 c54 0 152 -4 216 -8 l117 -8 3 -191 c4 -229 1 -268 -17
-261 -25 10 -55 -15 -55 -46 0 -16 5 -32 11 -36 8 -4 2 -12 -15 -21 -47 -25
-29 -83 27 -83 17 0 26 -4 22 -10 -4 -6 0 -22 9 -35 20 -31 23 -223 4 -244
-11 -11 -9 -13 10 -8 12 3 22 1 22 -4 0 -18 18 -8 24 14 6 22 7 22 21 3 14
-19 15 -19 15 8 0 15 4 25 10 21 12 -7 12 11 1 39 -7 18 -9 17 -26 -12 -36
-61 -45 -50 -45 56 0 86 3 100 23 125 22 28 23 28 39 10 13 -14 17 -44 20
-138 3 -100 6 -120 19 -123 15 -3 15 2 3 50 -19 72 -19 182 0 175 20 -8 56 21
56 45 0 12 -10 32 -22 45 -12 13 -16 23 -10 23 6 0 19 11 28 25 14 22 14 27 1
52 -9 15 -18 40 -22 56 -4 18 -12 27 -25 27 -19 0 -20 7 -20 225 0 181 3 225
13 225 77 0 367 38 534 69 362 69 599 94 716 77 41 -6 47 -10 47 -31 0 -20 -6
-24 -37 -27 -36 -3 -38 -5 -38 -38 0 -32 3 -35 33 -38 l32 -3 -1 -767 c-1
-422 -5 -752 -9 -734 -4 19 -13 39 -20 45 -13 12 -12 5 6 -61 7 -24 7 -24 -24
-8 -34 18 -92 22 -92 6 0 -5 14 -10 31 -10 113 0 184 -147 130 -266 -45 -99
-174 -125 -257 -52 -19 17 -37 28 -40 26 -10 -10 66 -67 103 -77 20 -6 54 -8
75 -5 34 6 38 4 48 -22 6 -16 16 -35 23 -42 12 -15 16 -27 24 -81 l5 -33 -33
7 c-52 12 -117 7 -196 -15 -82 -22 -323 -121 -323 -132 0 -4 37 9 83 29 159
70 298 113 362 113 110 0 105 7 105 -140 0 -71 3 -135 6 -144 3 -9 17 -16 31
-16 17 0 23 -4 20 -14 -16 -40 -29 -234 -24 -342 l6 -122 -51 -18 c-56 -21
-76 -50 -54 -80 24 -32 244 -47 284 -18 25 17 29 54 8 87 -8 12 -19 45 -25 74
-15 73 -24 288 -14 348 8 47 10 50 36 47 15 -2 27 1 27 7 0 6 9 11 19 11 11 0
23 4 26 10 4 6 194 10 538 10 l532 0 -30 -26 c-41 -35 -19 -23 113 64 133 86
271 155 363 178 52 13 100 16 259 12 107 -2 184 -1 170 3 -14 4 -78 7 -142 8
l-118 1 0 35 0 35 143 1 c78 1 130 4 115 6 l-28 4 0 104 0 104 28 4 c15 2 -37
5 -115 6 -136 1 -143 2 -143 21 0 19 7 20 140 20 l140 0 0 35 0 35 -365 0
-365 0 0 860 0 860 365 0 365 0 0 45 0 45 -1120 0 -1120 0 0 560 0 560 429 2
429 3 -3 -93 c-4 -122 4 -132 106 -132 l71 0 -6 -117 c-3 -65 -9 -153 -12
-197 l-6 -78 -50 91 c-49 91 -49 91 -88 91 -21 0 -45 -7 -53 -15 -9 -8 -23
-48 -33 -90 -10 -41 -21 -75 -24 -75 -4 0 -44 82 -89 183 -100 218 -105 227
-135 227 -34 0 -92 -42 -88 -66 4 -30 226 -472 273 -542 38 -58 44 -63 73 -60
l31 3 24 123 24 123 34 -58 c82 -138 95 -153 134 -153 44 0 65 21 73 75 10 62
36 432 36 507 0 58 3 67 21 73 31 10 39 45 25 107 -7 30 -16 60 -20 66 -5 9 9
12 52 12 56 0 59 -1 73 -32 11 -27 21 -34 48 -36 l34 -3 -5 -74 -5 -74 39 -16
c44 -17 136 -20 170 -5 21 10 23 16 20 80 l-4 70 39 -3 c36 -2 39 0 58 41 19
41 21 42 67 42 l48 0 0 -103 c0 -101 1 -104 25 -115 40 -18 89 -14 162 14 66
25 105 27 161 9 22 -7 22 -7 22 94 l0 101 30 0 c29 0 30 2 30 44 l0 44 -75 7
c-41 4 -104 4 -140 0 -65 -7 -65 -7 -65 18 0 14 -4 29 -10 32 -6 4 -10 -7 -10
-26 l0 -32 -157 6 c-87 4 -186 7 -220 7 -60 0 -62 1 -66 28 l-4 27 -2 -27 -1
-28 -219 0 -220 0 -4 28 -4 27 -2 -27 -1 -28 -113 0 c-63 0 -162 -3 -220 -6
l-106 -7 -4 34 -4 34 -1 -32 -2 -33 -220 0 -220 0 0 30 c0 17 -4 30 -10 30 -5
0 -10 -13 -10 -30 l0 -30 -64 0 -65 0 -4 33 -4 32 -1 -32 c-2 -32 -3 -33 -47
-33 l-45 0 0 -45 0 -45 43 0 42 0 1 -528 1 -527 -115 3 c-102 3 -287 -10 -334
-24 -16 -5 -17 13 -17 245 -1 138 3 251 7 251 4 0 25 -11 47 -25 22 -13 43
-25 48 -25 13 0 7 70 -8 100 -10 20 -28 33 -55 41 -28 9 -40 18 -40 31 0 22
-69 57 -112 58 -22 0 -28 5 -28 21 0 36 -51 76 -113 89 -47 9 -62 18 -84 47
-48 62 -144 84 -196 43 -15 -12 -40 -20 -62 -20 -33 0 -44 -8 -99 -66 -50 -54
-68 -67 -103 -74 l-43 -7 -3 261 c-1 143 -3 -151 -5 -654 l-2 -915 -24 -30
c-20 -25 -26 -28 -40 -16 -15 12 -16 99 -16 944 0 512 -3 927 -7 923 -4 -4 -8
-76 -8 -159 0 -84 -2 -220 -3 -302 l-2 -150 -51 -23 c-28 -13 -48 -26 -46 -29
3 -2 16 2 29 10 12 8 33 18 46 22 19 5 22 3 22 -22 0 -24 -9 -33 -65 -65 -61
-35 -65 -36 -65 -16 0 12 8 31 18 42 17 21 17 21 -5 2 -22 -18 -33 -76 -15
-76 4 0 27 11 51 25 23 14 45 25 47 25 2 0 4 -29 4 -65 0 -64 0 -65 -27 -65
-15 0 -47 10 -72 22 l-44 21 -68 -23 c-56 -19 -73 -21 -100 -11 -17 6 -45 11
-62 11 l-29 0 7 68 c8 87 -11 403 -29 467 -36 129 -96 278 -117 290 -6 4 -1
-12 11 -35 11 -22 39 -91 61 -152 48 -134 59 -222 59 -474 0 -100 7 -246 16
-325 19 -175 15 -223 -36 -413 -42 -157 -55 -190 -71 -181 -16 11 -10 63 31
240 44 191 46 227 26 395 -8 63 -17 162 -21 220 -10 189 -16 230 -30 230 -13
0 -48 -72 -60 -125 -12 -49 -110 -343 -144 -432 -25 -64 -37 -83 -52 -83 -27
0 -24 19 20 128 21 54 49 142 61 197 12 55 29 107 36 116 8 8 14 28 14 42 0
15 20 73 44 130 23 56 51 126 61 156 24 73 16 155 -21 219 -30 51 -121 152
-137 152 -5 0 15 -24 45 -54 102 -102 137 -205 104 -308 -32 -99 -109 -269
-120 -265 -19 7 -46 -13 -46 -33 0 -10 7 -26 16 -34 14 -15 14 -25 -5 -114
-12 -54 -37 -137 -57 -185 -19 -48 -38 -103 -41 -122 -5 -32 -4 -35 19 -35 14
0 30 6 36 13 18 22 157 424 176 508 8 36 47 122 53 116 2 -3 9 -79 13 -168 8
-146 7 -165 -8 -182 -9 -10 -25 -34 -37 -52 -11 -19 -40 -57 -63 -85 l-44 -50
51 0 51 0 0 -139 0 -139 -57 5 c-32 2 -308 5 -613 6 -499 1 -570 -1 -706 -18
l-151 -20 44 125 c98 280 117 324 176 414 114 173 228 312 295 358 38 26 57
31 153 41 135 13 310 -2 389 -33 58 -23 80 -21 80 8 0 34 -35 52 -151 79 -100
24 -135 27 -280 28 -164 0 -166 0 -207 -27 -23 -15 -86 -71 -142 -124 -99 -96
-110 -102 -89 -47 6 15 15 78 19 139 9 123 26 173 83 248 42 56 79 86 142 119
28 14 43 26 35 26 -8 1 -38 -12 -66 -29z m5177 -40 c17 -10 19 -22 19 -137 0
-99 -3 -124 -12 -115 -19 19 -82 14 -154 -13 -67 -25 -101 -30 -141 -19 -22 6
-23 10 -23 130 l0 123 30 -11 c35 -12 89 -1 161 31 49 23 90 26 120 11z m-699
-101 c28 -18 66 -9 92 22 30 35 30 35 11 -51 -8 -36 -14 -82 -15 -102 0 -32
-3 -37 -29 -43 -16 -3 -45 -3 -65 0 l-36 7 1 127 c1 118 2 124 14 87 8 -21 20
-43 27 -47z m-358 56 c33 -5 36 -8 22 -18 -10 -7 -20 -34 -24 -62 l-7 -50 -43
-3 c-37 -3 -42 -1 -42 17 0 14 -6 21 -20 21 -14 0 -20 -7 -20 -21 0 -17 -5
-20 -37 -17 -44 3 -52 25 -33 82 18 55 79 70 204 51z m5 -221 c-8 -10 -36 -14
-105 -14 -79 0 -95 3 -103 18 -13 25 -2 75 16 68 8 -3 23 -6 34 -6 10 0 19 -7
19 -15 0 -9 9 -15 25 -15 16 0 25 6 25 15 0 9 9 15 23 15 39 0 67 12 69 29 1
9 3 -6 5 -32 3 -28 -1 -55 -8 -63z m-1970 -15 c17 -6 31 -14 31 -17 0 -4 13
-21 30 -39 21 -23 45 -35 83 -43 56 -11 102 -47 109 -84 2 -13 18 -23 57 -33
62 -15 81 -28 81 -53 0 -11 10 -20 30 -24 43 -8 80 -48 80 -86 0 -16 -2 -30
-5 -30 -3 0 -127 72 -275 161 -200 119 -270 165 -270 179 0 23 -39 38 -51 19
-5 -8 -9 -18 -9 -24 0 -5 -73 -52 -163 -102 l-162 -93 -3 42 c-4 45 7 58 48
58 17 0 45 21 93 70 61 63 72 70 107 70 21 0 42 5 45 11 18 27 90 37 144 18z
m-665 -494 c11 -8 32 -15 47 -15 33 0 43 -13 35 -43 -5 -22 -9 -22 -194 -25
l-189 -2 -6 42 c-3 24 -4 45 -1 47 2 3 33 -1 67 -8 54 -11 69 -10 98 2 44 20
119 20 143 2z m2016 -1685 l0 -1180 -91 0 -91 0 -43 48 c-37 39 -44 54 -45 88
0 23 -7 61 -15 84 -21 58 -19 67 8 42 29 -27 37 -28 37 -2 0 14 5 18 17 13 13
-5 15 -2 10 16 -4 17 -1 24 14 28 25 7 14 23 -16 23 -45 0 -243 125 -258 163
-3 7 5 29 17 48 16 26 27 33 44 31 30 -4 62 24 62 54 0 29 -41 58 -70 49 -15
-5 -20 -2 -20 12 0 10 -9 36 -20 58 -11 22 -20 41 -20 43 0 2 21 1 48 -2 33
-5 43 -4 32 3 -8 6 -30 11 -47 11 -41 0 -42 11 -2 44 17 14 25 26 18 26 -7 0
-21 -7 -31 -17 -17 -16 -18 -8 -18 208 0 123 3 464 7 757 l6 532 234 0 233 0
0 -1180z m472 1170 l98 0 0 -45 0 -45 -220 0 -220 0 0 52 0 51 122 -6 c66 -4
165 -7 220 -7z m448 -45 l0 -45 -170 0 -170 0 0 45 0 45 170 0 170 0 0 -45z
m110 -1092 l-1 -1138 -44 -27 -45 -27 0 1164 0 1165 45 0 45 0 0 -1137z m-690
927 l0 -100 -160 0 -160 0 0 100 0 100 160 0 160 0 0 -100z m460 0 l0 -100
-220 0 -220 0 0 100 0 100 220 0 220 0 0 -100z m120 0 l0 -100 -55 0 -55 0 0
100 0 100 55 0 55 0 0 -100z m-350 -140 l0 -30 -220 0 -220 0 0 30 0 30 220 0
220 0 0 -30z m350 0 l0 -30 -170 0 -170 0 0 30 0 30 170 0 170 0 0 -30z
m-2736 -219 c69 -69 87 -93 84 -112 -2 -16 -11 -25 -27 -27 -19 -3 -43 15
-112 84 -83 82 -103 117 -82 137 20 21 55 1 137 -82z m2636 -716 l0 -785 -350
0 -350 0 0 785 0 785 350 0 350 0 0 -785z m660 -525 c0 -19 -7 -20 -220 -20
-213 0 -220 1 -220 20 0 19 7 20 220 20 213 0 220 -1 220 -20z m-230 -135 l0
-105 -105 0 -105 0 0 105 0 105 105 0 105 0 0 -105z m460 0 l0 -105 -225 0
-225 0 0 105 0 105 225 0 225 0 0 -105z m-2115 -7 c77 -98 115 -178 115 -245
0 -38 -4 -53 -14 -53 -9 0 -15 16 -18 48 -3 26 -16 72 -30 102 -29 63 -122
180 -143 180 -8 0 -15 3 -15 6 0 7 32 33 41 34 3 0 32 -33 64 -72z m35 -143
c21 -43 30 -76 31 -117 2 -64 -11 -88 -47 -88 -27 0 -32 27 -11 61 10 17 9 22
-4 32 -23 17 -33 66 -17 84 10 12 9 17 -5 28 -23 17 -47 77 -41 103 4 14 -1
24 -15 31 -12 7 -21 17 -21 24 1 23 100 -98 130 -158z m1850 1 l0 -33 -77 -6
c-89 -6 -157 -28 -273 -86 -44 -23 -83 -41 -85 -41 -3 0 -5 45 -5 100 l0 100
220 0 220 0 0 -34z m-560 -171 l0 -85 -450 0 -450 0 0 85 0 85 450 0 450 0 0
-85z"/>
<path d="M7427 7663 c-2 -5 -4 -284 -5 -620 l0 -613 164 0 164 0 -2 618 -3
617 -157 3 c-86 1 -158 -1 -161 -5z m253 -618 l0 -545 -93 0 -93 0 0 545 0
545 93 0 93 0 0 -545z"/>
<path d="M8270 7197 c0 -7 -26 -32 -57 -57 -57 -44 -59 -45 -148 -50 l-90 -5
0 -130 0 -130 315 0 315 0 0 130 0 130 -90 5 c-90 5 -91 5 -153 54 -34 27 -62
53 -62 57 0 5 -7 9 -15 9 -8 0 -15 -6 -15 -13z m320 -242 l0 -125 -300 0 -300
0 0 125 0 125 300 0 300 0 0 -125z"/>
<path d="M8032 6478 c-8 -8 -9 -15 -1 -25 8 -9 8 -13 0 -13 -21 0 -51 -40 -51
-68 0 -63 74 -82 114 -29 20 27 20 28 2 61 -10 19 -15 39 -11 46 8 13 -12 40
-29 40 -7 0 -17 -5 -24 -12z"/>
<path d="M8536 8789 c-47 -37 -26 -119 34 -134 64 -15 98 91 44 134 -15 12
-32 21 -39 21 -7 0 -24 -9 -39 -21z"/>
<path d="M9171 8651 c-16 -10 -12 -100 19 -459 20 -224 28 -254 72 -268 16 -5
27 -1 41 17 18 22 19 35 14 149 -4 69 -9 135 -13 146 -5 20 -1 22 55 26 71 5
94 22 124 88 23 51 27 145 8 203 -7 20 -26 48 -42 62 -25 20 -41 25 -89 25
-32 0 -70 -4 -83 -9 -21 -8 -26 -6 -30 10 -6 20 -50 26 -76 10z m229 -133 c24
-39 25 -79 5 -118 -18 -35 -47 -46 -84 -30 -46 19 -66 92 -40 143 16 30 28 37
67 37 26 0 36 -6 52 -32z"/>
<path d="M8563 8613 c-17 -6 -16 -71 2 -207 15 -116 24 -136 61 -136 39 0 46
35 34 184 -13 165 -14 166 -53 165 -18 0 -38 -3 -44 -6z"/>
<path d="M8712 8568 c-13 -13 -16 -273 -4 -343 7 -37 10 -40 42 -43 53 -5 60
13 60 151 l0 118 33 -3 32 -3 3 -68 3 -68 42 3 42 3 7 59 c4 32 9 61 12 63 2
2 15 1 30 -3 26 -6 26 -6 26 -111 0 -118 8 -143 48 -143 48 0 52 13 52 161 0
123 -2 139 -21 163 -44 55 -129 74 -164 36 -17 -19 -18 -19 -43 1 -19 15 -38
20 -69 18 -24 -2 -48 2 -55 9 -15 15 -61 15 -76 0z"/>
<path d="M9512 8123 c-76 -127 -80 -143 -42 -178 27 -25 50 -16 87 37 l34 46
-3 109 -3 108 -73 -122z"/>
<path d="M4430 7674 c-152 -35 -288 -79 -346 -113 -46 -27 -253 -204 -270
-232 -4 -7 44 34 107 89 124 112 198 156 329 197 253 79 432 94 622 50 126
-28 209 -65 299 -133 154 -117 172 -174 150 -476 -4 -64 -10 -91 -20 -94 -12
-4 -13 13 -8 102 11 173 -15 299 -78 382 -57 75 -198 142 -368 175 -126 24
-230 24 -337 -1 -125 -30 -359 -99 -390 -115 -65 -34 -381 -407 -411 -486 -49
-128 -9 -363 97 -571 19 -37 30 -78 35 -135 6 -52 19 -106 36 -145 22 -53 27
-81 31 -175 l4 -113 -99 0 c-57 0 -120 -6 -146 -14 -47 -14 -47 -14 -47 9 0
13 -4 26 -8 29 -5 3 -7 -8 -4 -23 3 -21 -1 -30 -15 -35 -77 -31 -156 -57 -160
-53 -3 3 7 23 21 44 54 78 102 234 121 388 8 65 10 63 35 -34 6 -23 13 -41 16
-39 11 11 -32 134 -81 234 l-55 110 0 108 c0 103 -1 110 -46 224 -44 111 -46
120 -40 185 7 72 -7 120 -52 185 -11 15 -26 49 -35 76 -10 28 -35 69 -62 97
-25 26 -45 45 -45 42 0 -3 20 -28 45 -54 25 -26 45 -57 45 -68 0 -10 14 -45
31 -77 18 -33 39 -72 48 -89 11 -21 16 -58 16 -120 0 -82 4 -99 43 -196 40
-101 42 -109 41 -208 -1 -100 0 -105 40 -188 36 -75 41 -93 41 -156 0 -39 -5
-99 -11 -134 l-11 -63 -59 0 c-55 0 -221 -45 -259 -70 -24 -16 -11 -12 95 25
100 35 215 48 215 25 0 -27 -64 -171 -98 -219 -33 -48 -45 -57 -122 -88 -47
-19 -89 -39 -95 -44 -5 -5 70 23 165 62 96 39 216 82 265 97 l90 25 215 -11
c189 -10 223 -9 285 5 49 12 121 17 240 17 167 1 172 0 288 -35 64 -20 117
-32 117 -28 0 8 -5 10 -184 54 -77 19 -165 35 -195 35 -57 0 -226 -23 -293
-39 -38 -9 -249 -3 -266 8 -5 3 -12 40 -15 82 l-7 76 47 7 c25 3 91 6 147 6
159 1 270 16 411 56 184 52 278 66 455 66 181 1 225 -6 499 -87 106 -31 197
-55 203 -53 19 7 -434 130 -531 145 -147 23 -443 2 -549 -38 -15 -6 -78 -23
-140 -39 -101 -26 -137 -30 -325 -36 l-212 -7 -29 79 c-15 44 -32 115 -38 159
-7 59 -23 110 -58 191 -81 185 -94 240 -95 384 0 110 3 130 22 166 23 44 179
239 236 296 18 18 52 57 76 86 53 64 85 81 242 128 116 35 124 37 163 23 65
-22 86 -64 86 -167 0 -46 -7 -112 -16 -146 -15 -54 -15 -83 -4 -266 10 -162
10 -217 0 -265 -7 -33 -16 -118 -20 -190 -4 -84 -16 -170 -34 -243 -15 -62
-24 -122 -21 -132 9 -28 37 -34 56 -11 21 26 56 208 69 361 6 69 14 166 19
215 6 55 5 150 -1 242 -5 83 -8 168 -6 189 3 33 6 26 30 -61 33 -120 48 -260
48 -441 0 -113 3 -136 16 -141 8 -3 19 -2 24 3 11 12 15 261 5 409 -7 107 -12
131 -48 225 -41 104 -41 106 -42 241 l0 137 -34 42 c-18 23 -31 44 -28 47 10
9 170 16 165 7 -9 -15 10 -54 26 -54 19 0 48 29 41 41 -9 13 20 11 118 -11
122 -27 229 -80 293 -146 77 -78 87 -114 91 -323 3 -174 10 -205 39 -180 13
10 29 191 26 293 -2 80 -24 157 -58 202 -35 47 -160 139 -244 178 -164 77
-408 97 -610 50z m130 -106 c30 -41 30 -42 30 -172 1 -130 1 -132 41 -231 37
-90 42 -113 49 -225 14 -198 13 -423 -2 -417 -9 3 -13 36 -14 118 -1 133 -11
272 -26 349 -15 81 -58 223 -70 235 -7 7 -8 -63 -3 -225 8 -259 -8 -494 -47
-710 -25 -141 -26 -142 -52 -138 -18 3 -21 9 -18 43 2 22 15 85 28 140 41 161
59 503 40 745 -7 88 -6 116 10 175 39 152 17 278 -55 316 -22 12 -29 20 -20
23 8 2 21 7 29 9 35 12 52 5 80 -35z"/>
<path d="M8950 6905 l0 -775 323 2 322 3 -317 2 -318 3 0 766 0 766 315 -8
c234 -5 315 -4 315 5 0 8 -87 11 -320 11 l-320 0 0 -775z"/>
<path d="M6313 5716 c11 -28 -3 -39 -25 -19 -19 17 -19 17 -12 -12 7 -27 6
-29 -9 -16 -10 7 -17 9 -17 3 0 -5 7 -15 15 -22 8 -7 15 -21 15 -32 0 -10 7
-32 15 -48 12 -23 24 -30 60 -36 25 -3 70 -3 99 1 52 6 56 8 66 41 14 40 43
44 48 6 2 -14 14 -27 30 -33 36 -14 113 -5 127 15 7 9 14 14 16 12 2 -2 5 18
7 45 2 40 0 49 -14 49 -14 0 -14 3 -4 15 20 24 4 29 -19 6 -16 -16 -34 -21
-76 -21 -30 0 -64 -6 -76 -12 -17 -11 -22 -10 -30 5 -8 14 -25 17 -109 17 -91
0 -98 1 -93 19 3 10 -1 22 -8 27 -9 5 -10 2 -6 -10z"/>
<path d="M6250 5561 c0 -7 -27 -39 -60 -71 -61 -60 -68 -83 -28 -96 11 -3 17
-12 14 -20 -4 -10 3 -14 25 -14 23 0 32 -5 36 -21 5 -17 12 -20 47 -17 38 3
41 1 39 -22 0 -14 -8 -43 -17 -65 -8 -22 -15 -60 -16 -83 0 -36 4 -45 20 -49
26 -7 28 -59 3 -67 -15 -5 -17 -15 -15 -59 3 -35 -3 -70 -16 -105 -15 -38 -17
-50 -6 -42 19 17 34 75 34 136 l0 51 49 -10 c34 -6 60 -6 80 1 23 8 31 7 35
-3 8 -21 -3 -95 -20 -139 -14 -36 -14 -38 0 -27 22 18 36 75 36 144 0 32 6 70
14 85 18 36 28 119 18 162 -6 28 -4 39 12 57 16 19 26 21 61 16 38 -5 44 -3
50 16 4 15 15 21 33 21 15 0 35 8 43 18 9 9 25 22 35 29 18 12 18 13 1 23 -15
10 -16 14 -5 28 6 9 -3 3 -22 -13 -55 -48 -107 -67 -205 -75 -49 -4 -85 -8
-79 -8 19 -3 22 -37 8 -71 -17 -39 -33 -36 -56 10 -23 47 -22 59 7 59 36 0 31
17 -8 24 -94 18 -170 105 -148 169 6 17 9 33 6 35 -3 3 -5 0 -5 -7z"/>
<path d="M4625 5179 c-60 -4 -405 -11 -765 -15 -597 -8 -634 -9 -415 -16 259
-8 910 4 1252 24 235 13 357 7 753 -38 304 -34 522 -75 675 -128 13 -5 11 -2
-5 7 -59 35 -274 82 -530 116 -402 54 -682 69 -965 50z"/>
<path d="M6220 4928 c12 -21 20 -50 20 -80 0 -41 -5 -54 -37 -89 -41 -45 -112
-85 -188 -105 -27 -8 -171 -25 -320 -39 -442 -42 -806 -88 -910 -116 -25 -7
-288 -14 -685 -20 -355 -5 -701 -13 -770 -18 -105 -8 -90 -9 95 -4 121 3 472
8 780 13 371 5 572 11 595 19 73 24 412 67 865 111 387 37 431 48 525 136 65
61 79 106 52 168 -11 24 -25 47 -31 51 -7 3 -3 -8 9 -27z"/>
<path d="M9470 4874 c-36 -8 -78 -12 -95 -9 -29 5 -29 5 -9 -9 27 -19 54 -75
54 -111 l0 -28 -126 6 c-69 3 -128 8 -131 11 -12 11 17 83 44 110 l27 27 -30
-11 c-51 -20 -91 -58 -118 -112 -43 -86 -31 -180 31 -249 52 -57 100 -79 173
-79 209 0 308 252 155 396 l-35 33 58 11 c31 7 73 15 92 20 34 8 34 8 5 8 -16
0 -59 -6 -95 -14z m-250 -180 c0 -24 -14 -32 -25 -14 -8 13 -35 13 -35 0 0 -5
13 -16 29 -25 16 -8 31 -20 33 -27 2 -9 11 -5 28 11 17 16 19 22 8 18 -10 -3
-20 -2 -23 3 -7 11 29 32 39 23 3 -3 33 -5 66 -4 41 1 60 -2 60 -10 0 -9 4 -9
14 1 8 6 25 10 38 8 19 -2 24 -10 26 -40 2 -29 -1 -39 -18 -48 -18 -9 -25 -8
-40 5 -11 10 -20 27 -22 39 -3 18 -7 15 -20 -16 -10 -21 -22 -38 -28 -38 -6 0
-18 17 -28 38 -15 34 -16 35 -20 13 -2 -13 2 -27 9 -32 8 -4 10 -11 6 -16 -12
-12 -70 -13 -84 -1 -7 6 -18 6 -28 1 -25 -15 -75 -3 -75 16 0 27 12 33 32 14
13 -12 22 -13 29 -6 8 8 3 16 -20 27 -22 12 -31 24 -31 41 0 27 16 39 54 41
21 2 26 -3 26 -22z"/>
<path d="M4313 3293 c-36 -5 -45 -31 -18 -53 8 -7 15 -25 15 -41 0 -24 4 -29
25 -29 14 0 25 6 25 13 0 8 3 8 9 -2 9 -14 20 -15 131 -9 l55 3 0 55 0 55 -88
1 c-48 1 -90 4 -94 8 -3 3 -11 5 -17 4 -6 0 -26 -3 -43 -5z"/>
<path d="M4044 3253 c3 -21 6 -48 6 -60 0 -21 4 -22 92 -22 52 0 97 4 105 10
22 19 16 76 -9 93 -27 19 -108 22 -108 4 0 -9 -3 -9 -12 0 -7 7 -27 12 -46 12
-34 0 -35 0 -28 -37z"/>
<path d="M4640 3281 c0 -4 -10 -7 -22 -7 -21 1 -23 -4 -26 -56 l-3 -58 48 2
c26 1 53 5 58 9 6 4 34 3 64 -3 48 -8 57 -7 83 12 23 17 28 18 28 5 0 -11 11
-15 44 -15 39 0 45 3 54 28 l10 27 7 -27 c9 -36 45 -39 45 -4 0 13 7 27 16 30
10 4 14 15 12 33 -3 27 -6 28 -60 31 -40 2 -58 -1 -58 -9 0 -8 -4 -8 -12 -1
-15 12 -288 14 -288 3z m15 -45 c-10 -14 -15 -26 -12 -26 3 0 12 -3 21 -6 13
-5 16 2 16 35 0 46 10 52 33 19 l16 -23 0 23 c1 27 21 30 21 2 0 -20 0 -20 20
0 37 37 80 20 80 -31 0 -46 -49 -70 -80 -39 -16 16 -20 17 -20 5 0 -22 -15
-18 -34 8 -11 14 -15 16 -12 5 4 -12 -3 -18 -24 -23 -16 -4 -34 -4 -40 0 -5 3
-10 1 -10 -4 0 -6 -7 -11 -15 -11 -11 0 -15 12 -15 45 0 25 5 45 10 45 6 0 10
-8 10 -17 0 -13 5 -11 17 9 10 16 21 24 26 19 5 -5 2 -20 -8 -35z"/>
<path d="M4010 115 l0 -65 65 0 65 0 0 65 0 65 -65 0 -65 0 0 -65z"/>
</g>
</svg>
